<svg width="241" height="160" viewBox="0 0 241 160" fill="none" xmlns="http://www.w3.org/2000/svg">
<g clip-path="url(#clip0_22_160)">
<path d="M41.4253 118.159C41.4253 119.965 42.0389 121.593 43.2661 123.048C44.4933 124.5 46.0273 125.856 47.8714 127.111C49.7122 128.366 51.6966 129.589 53.8246 130.778C55.9527 131.967 57.9371 133.245 59.7779 134.609C61.6187 135.975 63.156 137.459 64.3832 139.068C65.6104 140.677 66.224 142.535 66.224 144.648C66.224 146.365 65.8062 147.961 64.9739 149.436C64.1416 150.91 63.0124 152.188 61.5861 153.266C60.1597 154.344 58.4821 155.203 56.5532 155.842C54.6243 156.481 52.5615 156.799 50.3682 156.799C47.0783 156.799 44.0755 156.084 41.3567 154.652C38.638 153.22 36.4871 151.208 34.9106 148.61V143.063H35.7005C36.0073 144.825 36.6111 146.454 37.5087 147.951C38.4062 149.449 39.5159 150.76 40.8313 151.88C42.1466 153.004 43.6153 153.886 45.2375 154.521C46.8596 155.16 48.547 155.478 50.3029 155.478C53.5472 155.478 56.1256 154.718 58.0317 153.201C59.9378 151.68 60.8941 149.645 60.8941 147.093C60.8941 145.068 60.2805 143.318 59.0533 141.844C57.8261 140.369 56.3019 139.003 54.4807 137.748C52.6594 136.493 50.6881 135.284 48.56 134.114C46.432 132.947 44.4574 131.702 42.6394 130.382C40.8182 129.061 39.294 127.596 38.0668 125.991C36.8396 124.385 36.226 122.481 36.226 120.279C36.226 118.693 36.5883 117.232 37.3128 115.889C38.0374 114.545 39.0231 113.379 40.2731 112.389C41.5232 111.399 43.0017 110.629 44.712 110.079C46.4222 109.528 48.263 109.253 50.2377 109.253C51.8598 109.253 53.3514 109.45 54.7124 109.846C56.0702 110.243 57.3006 110.682 58.3973 111.167C59.4939 111.652 60.4372 112.114 61.227 112.553C62.0169 112.992 62.6305 113.28 63.0678 113.411C63.5933 113.542 63.8577 113.323 63.8577 112.749V111.032H64.5137V119.683H63.7239C63.5476 118.405 63.0646 117.219 62.278 116.118C61.4881 115.017 60.4894 114.05 59.285 113.211C58.0774 112.376 56.7197 111.724 55.2052 111.262C53.6908 110.8 52.1013 110.567 50.4368 110.567C47.718 110.567 45.5345 111.262 43.8927 112.648C42.2478 114.034 41.4253 115.872 41.4253 118.159Z" fill="white"/>
<path d="M99.8415 139.822H81.8153L77.4744 151.841C76.5964 154.043 77.0795 155.252 78.9203 155.471V156.133H72.014V155.471C73.0225 155.383 73.832 155.042 74.4488 154.449C75.0624 153.856 75.6107 152.984 76.0938 151.841L90.1707 112.743L89.1198 109.902H94.3811L109.447 151.841C109.93 152.988 110.478 153.856 111.092 154.449C111.706 155.042 112.518 155.386 113.527 155.471V156.133H102.74V155.471C104.581 155.252 105.064 154.04 104.186 151.841L99.8415 139.822ZM82.2755 138.501H99.378L90.8268 114.66L82.2755 138.501Z" fill="white"/>
<path d="M154.113 151.844C154.113 153.034 154.331 153.915 154.772 154.485C155.209 155.059 155.911 155.39 156.877 155.475V156.137H146.416V155.475C147.379 155.386 148.084 155.055 148.522 154.485C148.959 153.915 149.178 153.034 149.178 151.844V114.198C149.178 113.008 148.959 112.13 148.522 111.557C148.084 110.986 147.379 110.656 146.416 110.567V109.908H174.769L176.414 120.476H176.219C175.824 118.759 175.363 117.307 174.838 116.118C174.312 114.928 173.663 113.972 172.896 113.244C172.129 112.517 171.228 112.002 170.2 111.691C169.169 111.383 167.951 111.229 166.548 111.229H154.116V130.647H162.272C163.852 130.647 165.069 130.218 165.924 129.359C166.78 128.501 167.491 126.97 168.062 124.768H168.193V137.846H168.062C167.491 135.644 166.78 134.114 165.924 133.255C165.069 132.397 163.852 131.967 162.272 131.967H154.116V151.844H154.113Z" fill="white"/>
<path fill-rule="evenodd" clip-rule="evenodd" d="M131.38 116.858C131.305 116.508 131.099 116.233 130.789 116.039C130.329 115.83 129.859 115.803 129.382 115.948C129.151 115.951 128.922 115.97 128.694 116.003L128.589 115.938C128.544 115.676 128.459 115.276 128.38 114.804C128.485 114.135 129.285 113.752 128.978 112.795C128.877 112.474 128.387 111.881 128.25 111.698C128.116 111.514 128.093 111.393 128.132 111.134C128.168 110.878 128.514 111.059 128.756 110.924C128.997 110.79 129.066 110.675 129.399 110.416C129.728 110.154 129.96 109.987 129.915 109.581C129.869 109.174 129.275 108.578 128.717 108.277C126.869 107.277 125.051 108.673 124.722 110.541C124.585 111.311 124.578 112.294 124.676 113.093C124.725 113.493 124.81 113.824 124.869 114.149C124.908 114.774 125.022 115.377 125.156 116.331C125.058 115.967 124.839 115.695 124.51 115.489C124.183 115.299 123.837 115.25 123.472 115.338C123.106 115.426 122.829 115.63 122.626 115.941C122.453 116.246 122.408 116.573 122.509 116.921C122.607 117.265 122.809 117.54 123.129 117.727C123.344 117.848 123.576 117.907 123.831 117.914L124.203 117.894L125.368 117.743C125.518 119.116 125.782 120.41 125.949 121.849C126.533 126.551 127.219 131.315 127.538 136.027C127.78 139.212 127.78 142.394 127.542 145.576C127.405 147.847 127.068 150.101 126.546 152.326C126.194 153.843 125.704 155.331 125.074 156.766C124.588 157.638 124.03 158.463 123.406 159.237C123.26 159.505 123.087 159.761 122.891 160C127.029 156.746 129.555 152.582 130.466 147.512C132.268 140.107 129.598 123.697 129.598 123.697L128.704 117.389C128.788 117.746 128.997 118.025 129.33 118.218C129.64 118.412 129.986 118.48 130.349 118.408C130.721 118.33 131.005 118.146 131.21 117.841C131.403 117.537 131.462 117.206 131.38 116.858Z" fill="white"/>
<path d="M221.113 67.3928C220.81 66.5147 220.656 65.5579 220.686 64.5748C220.712 63.7196 220.914 62.9102 221.253 62.1697C220.845 62.1402 220.434 62.114 220.026 62.0943C211.805 61.4652 209.337 62.5498 201.266 64.3094C202.904 63.7262 204.066 62.6317 204.892 61.0425C205.649 59.4729 205.75 57.8575 205.215 56.206C204.68 54.5546 203.661 53.3422 202.163 52.5099C200.704 51.8218 199.19 51.7267 197.643 52.3034C196.096 52.8801 194.911 53.9025 194.167 55.4491C193.684 56.4878 193.491 57.5724 193.563 58.7488L193.785 60.4592L194.885 65.784C188.654 66.957 182.818 68.6282 176.284 69.8963C154.955 74.2314 133.374 79.0515 111.908 82.1742C97.4101 84.3958 82.8403 85.5001 68.1824 85.5099C57.7381 85.6672 47.2905 84.8939 36.918 83.2686C29.8518 82.1677 22.8606 80.4244 16.0751 78.016C11.9137 76.0729 7.93504 73.7858 4.17509 71.1775C2.88914 70.5909 1.66519 69.8864 0.5 69.064C16.8453 87.0402 36.794 97.2472 60.3198 99.6753C94.8545 105.41 169.087 87.3777 169.087 87.3777L197.669 81.0503C196.066 81.5647 194.859 82.6362 194.092 84.2255C193.315 85.7229 193.126 87.3482 193.583 88.9866C194.072 90.6708 195.009 91.9291 196.474 92.7712C197.917 93.6002 199.451 93.764 201.021 93.2594C202.597 92.7909 203.795 91.7423 204.572 90.2448C205.372 88.0429 205.336 85.8704 204.497 83.7143C204.399 82.6395 204.236 81.591 204.004 80.5588L204.268 80.0509C207.562 79.2219 215.431 76.5939 222.383 77.2755C221.795 75.3258 221.208 73.3762 220.731 71.4068C220.382 69.9978 220.571 68.6151 221.113 67.3928ZM95.0438 95.3139C92.436 95.6056 89.838 95.9038 87.253 96.2118C84.6681 96.5198 82.0863 96.8212 79.5014 97.1129L85.0336 87.4301C90.6703 86.8239 95.8663 86.2243 100.615 85.6312L95.0438 95.3139Z" fill="white"/>
<path fill-rule="evenodd" clip-rule="evenodd" d="M227.624 60.3052C224.05 59.948 219.546 60.2495 215.923 60.9736C213.844 61.3898 212.196 62.0189 210.502 62.3925L209.34 78.6844C212.457 78.9073 214.493 82.5117 218.785 80.7553C220.218 80.1688 222.771 77.7014 223.56 77.0133C224.35 76.3252 224.905 76.1876 226.093 76.2695C227.281 76.3481 226.579 78.0029 227.271 79.0678C227.967 80.1328 228.518 80.4178 229.827 81.8498C231.139 83.2817 231.981 84.2877 233.825 83.9338C235.669 83.5799 238.192 80.6243 239.377 77.9504C243.313 69.0737 236.293 61.1735 227.624 60.3052Z" fill="white"/>
<path d="M123.322 60.1544C120.547 61.1931 91.114 68.071 86.0485 68.782C80.983 69.4931 76.7172 69.9191 73.2542 70.06L76.5997 54.2858C91.5448 53.614 118.945 47.1916 122.538 45.3403" fill="white"/>
<path d="M165.98 49.7115C167.21 49.7115 167.827 50.7731 167.827 52.8932C167.827 55.0132 167.321 57.0022 166.31 58.9912C165.21 61.1997 163.934 62.304 162.481 62.304C159.09 62.304 156.606 60.8458 155.02 57.9295C151.939 61.5536 148.022 63.3657 143.267 63.3657C140.803 63.3657 138.887 62.8774 137.523 61.9075C134.925 63.6737 131.602 64.5584 127.555 64.5584C123.508 64.5584 120.864 63.2313 120.159 60.5804C119.852 59.2992 119.454 58.657 118.971 58.657C118.618 58.657 117.871 58.9453 116.725 59.5188C112.985 61.2882 108.187 62.9004 102.332 64.3585C96.1697 65.9051 91.1075 66.6784 87.1452 66.6784C85.869 66.6784 85.2293 65.5938 85.2293 63.4312C85.2293 61.3996 85.7678 59.332 86.8482 57.2349C87.9285 55.1378 89.1687 54.0859 90.5787 54.0859C98.5458 54.0859 109.196 51.1696 122.535 45.337C123.681 44.8521 124.539 44.6063 125.11 44.6063C126.256 44.6063 126.762 45.6451 126.628 47.7225C126.497 49.3576 126.869 50.5307 127.751 51.2352C128.632 51.9429 129.862 52.228 131.449 52.097C134.223 51.9659 136.576 51.0582 138.511 49.3805C139.523 48.4532 140.692 46.9525 142.01 44.8717C142.976 43.2825 143.77 42.4863 144.386 42.4863C145.222 42.5322 145.64 43.2596 145.64 44.6751C145.64 46.0022 145.45 47.2375 145.078 48.3877C144.703 49.5378 144.517 50.0686 144.517 49.9802C144.517 50.511 145.398 50.7764 147.157 50.7764C149.667 50.7764 151.844 50.0261 153.695 48.522C154.619 47.8143 155.875 46.2021 157.458 43.6823C158.734 41.5622 159.704 40.5235 160.363 40.5661C161.593 40.5661 161.969 41.6048 161.486 43.6823C160.914 46.2447 160.738 47.6602 160.957 47.9257C161.841 49.0692 163.516 49.6689 165.98 49.7115Z" fill="white"/>
<path d="M195.296 31.6829C195.296 39.0621 194.327 44.7407 192.391 48.7187C189.839 53.932 185.194 57.6249 178.461 59.7875C173.353 61.4685 168.049 62.3073 162.55 62.3073C161.274 62.3073 160.634 61.226 160.634 59.0601C160.634 57.0285 161.173 54.9609 162.253 52.8638C163.333 50.7666 164.573 49.7148 165.983 49.7148C172.805 49.7148 178.99 48.4795 184.535 46.0022C186.693 45.0749 187.681 43.3743 187.505 40.8971C186.8 34.5795 185.899 33.685 184.799 19.9423C184.669 17.334 185.315 14.4734 186.748 11.3572C188.178 8.24102 189.444 6.68457 190.544 6.68457C191.996 6.68457 193.142 11.213 193.977 20.2732C194.855 29.5956 195.296 27.3084 195.296 31.6829Z" fill="white"/>
<path d="M209.722 38.2297C209.631 42.7811 209.017 42.4075 207.878 45.6351C206.833 48.689 205.694 50.1931 204.464 50.1439C203.361 50.1439 202.731 49.4361 202.564 48.014C202.323 46.3232 201.889 43.0137 201.269 38.079C200.645 33.1442 200.081 32.2038 199.568 26.7218C199.056 21.2398 198.847 17.3077 198.938 14.9223C199.092 10.9935 199.731 7.58893 200.857 4.71523C202.039 1.53352 203.136 -0.0360366 204.147 0.00328422C205.335 0.0491585 206.337 2.52309 207.16 7.41854C207.728 10.9345 208.309 16.2854 208.912 23.4746C209.513 30.6604 209.781 35.5788 209.722 38.2297Z" fill="white"/>
<path d="M204.147 0L188.598 7.38906L185.171 15.9086L204.147 6.68128" fill="white"/>
<path d="M77.2002 1.48764L65.7017 13.0316L77.2002 24.5756L88.6987 13.0316L77.2002 1.48764ZM69.8402 13.0283L77.2002 5.63927L84.5601 13.0283L77.2002 20.4174L69.8402 13.0283Z" fill="white"/>
<path d="M77.203 8.30308L72.4926 13.0321L77.203 17.7611L81.9134 13.0321L77.203 8.30308Z" fill="white"/>
<path d="M64.592 51.9068C69.553 41.8636 75.0232 33.5669 81.0025 27.0167C84.4296 23.1927 87.5922 21.3578 90.497 21.5118C91.5806 21.5708 92.6316 21.9115 93.6466 22.5407C96.1272 24.107 97.263 26.8267 97.0573 30.6998C96.9562 32.6167 96.5286 34.8022 95.7747 37.2565C93.095 43.8624 89.495 49.8163 84.9811 55.1147C80.4673 60.4165 74.7882 63.8833 67.9439 65.5217L66.0607 65.9116L66.0052 65.8461C63.1004 67.1633 59.4025 68.4576 54.9082 69.729C50.4139 71.0004 45.7074 71.8949 40.7888 72.4061C36.9603 72.855 33.1873 72.9795 29.4698 72.7796C28.4254 72.7239 27.4006 72.6289 26.3986 72.4913C21.6856 72.0358 17.7004 70.676 14.4431 68.415C10.9149 66.0984 8.58453 62.8642 7.44545 58.7126C6.78942 56.468 6.52505 54.1448 6.65234 51.7364C6.83185 48.3516 7.81427 44.8258 9.60285 41.1558C12.6513 34.9366 15.7552 29.5005 18.9146 24.8442C19.4564 24.1364 19.9982 23.7989 20.54 23.8284C20.7325 23.8383 20.9251 23.871 21.1177 23.9202C21.5322 24.1463 21.7247 24.5264 21.6986 25.0572C21.679 25.4242 21.5387 25.8862 21.2743 26.4466C17.4687 33.0328 15.4549 38.387 15.2362 42.5058C15.1351 44.4227 15.4157 46.0742 16.0783 47.4603C18.2129 51.8708 22.1425 54.6363 27.8673 55.7635C29.8615 56.1993 31.9634 56.4746 34.1697 56.5926C38.1973 56.8088 42.5219 56.5303 47.1435 55.7537C54.3141 54.6298 60.127 53.3453 64.592 51.9068ZM81.2049 36.3554C79.3086 36.9485 77.7681 37.9807 76.5833 39.4519C75.3985 40.9232 74.2431 42.365 73.1204 43.7772C72.621 44.4064 72.3534 45.065 72.3175 45.7596C72.2914 46.2479 72.3991 46.7459 72.6471 47.2506C73.1628 48.5056 73.8711 49.4034 74.7751 49.9408C77.3013 49.9146 80.1507 49.2068 83.3329 47.824C84.5275 47.2735 85.1607 46.3069 85.2357 44.9208C85.2782 44.1049 85.1346 43.135 84.8082 42.0143C83.878 38.9735 82.6801 37.0894 81.2049 36.3554Z" fill="white"/>
</g>
<defs>
<clipPath id="clip0_22_160">
<rect width="240" height="160" fill="white" transform="translate(0.5)"/>
</clipPath>
</defs>
</svg>
